<svg width="22" height="14" viewBox="0 0 22 14" fill="none" xmlns="http://www.w3.org/2000/svg">
<g clip-path="url(#clip0_11_266)">
<path d="M7.89 13.1402C8.47 13.0202 8.97 12.8002 9.4 12.4702C9.78 12.1902 10.09 11.8402 10.34 11.4202C10.74 10.7902 10.93 10.0802 10.93 9.29023C10.93 8.50023 10.76 7.87023 10.41 7.34023C10.06 6.80023 9.55 6.41023 8.87 6.16023C9.32 5.93023 9.66 5.68023 9.89 5.40023C10.3 4.91023 10.51 4.25023 10.51 3.44023C10.51 2.63023 10.31 1.97023 9.9 1.41023C9.22 0.490234 8.07 0.0202344 6.45 -0.00976562H0V13.3202H6C6.68 13.3202 7.31 13.2602 7.88 13.1402H7.89ZM2.66 2.31023H5.56C6.2 2.31023 6.72 2.38023 7.13 2.52023C7.61 2.72023 7.85 3.13023 7.85 3.75023C7.85 4.31023 7.67 4.70023 7.31 4.92023C6.95 5.14023 6.48 5.25023 5.9 5.25023H2.66V2.31023ZM2.66 11.0102V7.46023H5.94C6.51 7.46023 6.96 7.54023 7.27 7.69023C7.84 7.95023 8.12 8.42023 8.12 9.12023C8.12 9.94023 7.83 10.4902 7.24 10.7802C6.92 10.9402 6.47 11.0102 5.89 11.0102H2.65H2.66Z" fill="#1D1D1D"/>
<path d="M13.19 12.4502C14.19 13.2602 15.35 13.6602 16.66 13.6602C18.25 13.6602 19.49 13.1802 20.37 12.2202C20.94 11.6202 21.26 11.0202 21.33 10.4402H18.7C18.55 10.7302 18.37 10.9502 18.17 11.1202C17.8 11.4202 17.33 11.5702 16.74 11.5702C16.19 11.5702 15.71 11.4502 15.32 11.2002C14.67 10.8002 14.33 10.1102 14.29 9.1202H21.47C21.48 8.2702 21.45 7.6202 21.39 7.1602C21.27 6.3902 21.01 5.7102 20.6 5.1202C20.15 4.4602 19.58 3.9702 18.9 3.6602C18.21 3.3502 17.44 3.2002 16.58 3.2002C15.14 3.2002 13.96 3.6602 13.06 4.5702C12.16 5.4802 11.7 6.7902 11.7 8.5002C11.7 10.3202 12.2 11.6402 13.2 12.4502H13.19ZM15.03 5.9002C15.39 5.5302 15.91 5.3402 16.57 5.3402C17.18 5.3402 17.69 5.5202 18.1 5.8702C18.51 6.2202 18.74 6.74019 18.79 7.43019H14.35C14.44 6.79019 14.67 6.2802 15.04 5.9002H15.03Z" fill="#1D1D1D"/>
<path d="M19.29 0.77002H13.5V2.11002H19.29V0.77002Z" fill="#1D1D1D"/>
</g>
<defs>
<clipPath id="clip0_11_266">
<rect width="21.46" height="13.66" fill="white"/>
</clipPath>
</defs>
</svg>
