<svg width="64" height="31" viewBox="0 0 64 31" fill="none" xmlns="http://www.w3.org/2000/svg">
<circle cx="15.5" cy="15.5" r="15.5" fill="#9A18DE"/>
<path d="M40.26 22V9.04H44.193C44.331 9.04 44.565 9.043 44.895 9.049C45.231 9.055 45.552 9.079 45.858 9.121C46.842 9.259 47.664 9.625 48.324 10.219C48.984 10.813 49.479 11.569 49.809 12.487C50.139 13.405 50.304 14.416 50.304 15.52C50.304 16.624 50.139 17.635 49.809 18.553C49.479 19.471 48.984 20.227 48.324 20.821C47.664 21.415 46.842 21.781 45.858 21.919C45.558 21.955 45.237 21.979 44.895 21.991C44.553 21.997 44.319 22 44.193 22H40.26ZM41.628 20.731H44.193C44.439 20.731 44.703 20.725 44.985 20.713C45.273 20.695 45.519 20.665 45.723 20.623C46.479 20.491 47.088 20.185 47.55 19.705C48.018 19.225 48.36 18.625 48.576 17.905C48.792 17.179 48.9 16.384 48.9 15.52C48.9 14.65 48.792 13.852 48.576 13.126C48.36 12.4 48.018 11.8 47.55 11.326C47.082 10.852 46.473 10.549 45.723 10.417C45.519 10.375 45.27 10.348 44.976 10.336C44.688 10.318 44.427 10.309 44.193 10.309H41.628V20.731ZM52.3538 22V9.04H53.6768V14.881H60.8408V9.04H62.1548V22H60.8408V16.15H53.6768V22H52.3538Z" fill="#1D1D1D"/>
</svg>
