<svg width="25" height="25" viewBox="0 0 25 25" fill="none" xmlns="http://www.w3.org/2000/svg">
<path d="M12.5001 0.370117C5.80012 0.370117 0.370117 5.80012 0.370117 12.5001C0.370117 19.2001 5.80012 24.6301 12.5001 24.6301C19.2001 24.6301 24.6301 19.2001 24.6301 12.5001C24.6301 5.80012 19.2001 0.370117 12.5001 0.370117ZM12.5001 2.48012C14.8001 2.48012 16.9201 3.27012 18.6101 4.58012C17.3901 6.15012 15.7101 7.39012 13.5701 8.30012C12.5401 6.42012 11.3701 4.58012 10.0401 2.80012C10.8301 2.60012 11.6501 2.48012 12.5001 2.48012ZM7.98012 3.57012C9.33012 5.33012 10.5201 7.15012 11.5601 9.01012C9.10012 9.73012 6.17012 10.1001 2.78012 10.1301C3.48012 7.26012 5.41012 4.88012 7.98012 3.57012ZM2.48012 12.5001C2.48012 12.4101 2.49012 12.3301 2.49012 12.2401C6.38012 12.2401 9.74012 11.7901 12.5501 10.9001C12.7901 11.3801 13.0101 11.8601 13.2301 12.3501C9.81012 13.4201 7.00012 15.6101 4.80012 18.9001C3.35012 17.1601 2.48012 14.9301 2.48012 12.5001ZM12.5001 22.5201C10.1801 22.5201 8.05012 21.7201 6.35012 20.3901C8.34012 17.2701 10.8801 15.2301 14.0301 14.3001C14.9701 16.7501 15.6601 19.2601 16.1001 21.8401C14.9801 22.2701 13.7701 22.5201 12.5001 22.5201ZM18.0601 20.8301C17.6201 18.4501 16.9701 16.1301 16.1201 13.8601C18.0201 13.5901 20.1001 13.6601 22.3901 14.0601C21.9501 16.8801 20.3401 19.3101 18.0601 20.8301ZM15.3101 11.8601C15.0601 11.2901 14.8101 10.7201 14.5301 10.1601C16.8601 9.15012 18.7401 7.78012 20.1401 6.03012C21.5001 7.64012 22.3601 9.69012 22.4901 11.9301C19.8901 11.5001 17.4901 11.4801 15.3101 11.8601Z" fill="#1D1D1D"/>
</svg>
