<svg width="20" height="20" viewBox="0 0 20 20" fill="none" xmlns="http://www.w3.org/2000/svg">
<g clip-path="url(#clip0_11_259)">
<path d="M4.31988 6.35986H0.379883V19.0799H4.31988V6.35986Z" fill="#1D1D1D"/>
<path d="M2.33 4.7C3.62 4.7 4.66 3.65 4.66 2.35C4.66 1.05 3.62 0 2.33 0C1.04 0 0 1.05 0 2.35C0 3.65 1.04 4.7 2.33 4.7Z" fill="#1D1D1D"/>
<path d="M10.6101 12.4102C10.6101 10.6202 11.4301 9.56022 13.0101 9.56022C14.4601 9.56022 15.1501 10.5802 15.1501 12.4102V19.0902H19.0701V11.0302C19.0701 7.62021 17.1401 5.97021 14.4401 5.97021C11.7401 5.97021 10.6101 8.07021 10.6101 8.07021V6.36022H6.83008V19.0802H10.6101V12.4002V12.4102Z" fill="#1D1D1D"/>
</g>
<defs>
<clipPath id="clip0_11_259">
<rect width="19.08" height="19.09" fill="white"/>
</clipPath>
</defs>
</svg>
